<?xml version="1.0" encoding="UTF-8"?>
<svg width="77px" height="53px" viewBox="0 0 77 53" version="1.1" xmlns="http://www.w3.org/2000/svg" xmlns:xlink="http://www.w3.org/1999/xlink">
    <!-- Generator: Sketch 50.2 (55047) - http://www.bohemiancoding.com/sketch -->
    <title>Arrow right</title>
    <desc>Created with Sketch.</desc>
    <defs></defs>
    <g id="Master" stroke="none" stroke-width="1" fill="none" fill-rule="evenodd">
        <g id="Lucid-line-icons" transform="translate(-430.000000, -7699.000000)" fill="#FFFFFF">
            <g id="Arrows" transform="translate(254.000000, 7547.000000)">
                <g transform="translate(1.000000, 140.000000)" id="Arrow-right">
                    <path d="M250.809642,36.5170406 L227.187685,12.8950835 C226.267399,11.9747971 224.770501,11.9747971 223.846396,12.8950835 C222.92611,13.8191885 222.92611,15.3160859 223.846396,16.2363723 L243.458807,35.8449642 L177.49222,35.8449642 C176.186253,35.8449642 175.128496,36.9027208 175.128496,38.2086874 C175.128496,39.5146539 176.186253,40.5724105 177.49222,40.5724105 L243.412983,40.5724105 L223.846396,60.1389976 C222.92611,61.059284 222.92611,62.5561814 223.846396,63.4802864 C224.312267,63.9385203 224.915609,64.1714558 225.51895,64.1714558 C226.122291,64.1714558 226.729451,63.9385203 227.187685,63.4802864 L250.809642,39.8583294 C251.733747,38.9342243 251.733747,37.4411456 250.809642,36.5170406"></path>
                </g>
            </g>
        </g>
    </g>
</svg>