<?xml version="1.0" encoding="UTF-8"?>
<svg width="28px" height="27px" viewBox="0 0 28 27" version="1.1" xmlns="http://www.w3.org/2000/svg" xmlns:xlink="http://www.w3.org/1999/xlink">
    <!-- Generator: Sketch 50.2 (55047) - http://www.bohemiancoding.com/sketch -->
    <title>Close</title>
    <desc>Created with Sketch.</desc>
    <defs></defs>
    <g id="Master" stroke="none" stroke-width="1" fill="none" fill-rule="evenodd">
        <g id="Lucid-line-icons" transform="translate(-1128.000000, -1465.000000)" fill="#FFFFFF">
            <g id="Generic" transform="translate(254.000000, 624.000000)">
                <g transform="translate(2.000000, 140.000000)" id="Close">
                    <path d="M889.300852,714.703697 L898.498049,723.90472 C899.393284,724.796129 899.393284,726.249929 898.498049,727.145163 C898.050432,727.592781 897.46126,727.818502 896.872089,727.818502 C896.290569,727.818502 895.701397,727.592781 895.249954,727.145163 L886.052757,717.947966 L876.85556,727.145163 C876.407943,727.592781 875.814945,727.818502 875.233425,727.818502 C874.644254,727.818502 874.055082,727.592781 873.607465,727.145163 C872.71223,726.249929 872.71223,724.796129 873.607465,723.90472 L882.804662,714.703697 L873.607465,705.5065 C872.71223,704.615091 872.71223,703.161291 873.607465,702.262231 C874.506526,701.366996 875.9565,701.366996 876.85556,702.262231 L886.052757,711.459428 L895.249954,702.262231 C896.15284,701.366996 897.60664,701.370822 898.498049,702.262231 C899.393284,703.161291 899.393284,704.615091 898.498049,705.5065 L889.300852,714.703697 Z"></path>
                </g>
            </g>
        </g>
    </g>
</svg>